<?xml version="1.0" standalone="no"?>
<!DOCTYPE svg PUBLIC "-//W3C//DTD SVG 20010904//EN"
 "http://www.w3.org/TR/2001/REC-SVG-20010904/DTD/svg10.dtd">
<svg version="1.0" xmlns="http://www.w3.org/2000/svg"
 width="200.000000pt" height="200.000000pt" viewBox="0 0 200.000000 200.000000"
 preserveAspectRatio="xMidYMid meet">
<metadata>
Created by potrace 1.11, written by Peter Selinger 2001-2013
</metadata>
<g transform="translate(0.000000,200.000000) scale(0.100000,-0.100000)"
fill="#000000" stroke="none">
<path d="M1177 1963 c-7 -11 -20 -91 -32 -198 -3 -27 -8 -64 -11 -81 l-6 -31
-96 -6 c-115 -6 -191 -25 -289 -73 -238 -114 -392 -348 -411 -621 l-7 -104
-142 -48 c-153 -52 -175 -64 -166 -88 7 -18 85 -13 267 18 32 6 59 9 61 7 2
-2 17 -39 34 -84 50 -129 148 -260 253 -337 42 -31 159 -87 181 -87 8 0 24 21
35 47 46 110 162 400 162 405 0 3 -17 13 -37 21 -134 54 -167 258 -59 362 123
118 311 67 366 -99 32 -99 -27 -231 -117 -260 -12 -4 -24 -13 -26 -21 -3 -7
18 -74 47 -147 29 -73 68 -172 86 -220 19 -49 39 -88 46 -88 53 0 189 78 269
153 l38 36 111 -55 c61 -31 120 -60 130 -66 41 -22 74 -27 80 -11 9 21 4 26
-87 95 -45 34 -84 65 -87 68 -4 4 -58 43 -77 55 -2 1 13 34 32 73 52 105 76
208 77 327 0 127 -21 226 -71 329 -89 180 -261 328 -443 382 l-48 15 -1 52
c-2 130 -13 259 -24 276 -7 13 -32 15 -38 4z"/>
</g>
</svg>
