<?xml version="1.0" standalone="no"?>
<!DOCTYPE svg PUBLIC "-//W3C//DTD SVG 20010904//EN"
 "http://www.w3.org/TR/2001/REC-SVG-20010904/DTD/svg10.dtd">
<svg version="1.0" xmlns="http://www.w3.org/2000/svg"
 width="721.000000pt" height="721.000000pt" viewBox="0 0 721.000000 721.000000"
 preserveAspectRatio="xMidYMid meet">
<metadata>
Created by potrace 1.11, written by Peter Selinger 2001-2013
</metadata>
<g transform="translate(0.000000,721.000000) scale(0.100000,-0.100000)"
fill="#000000" stroke="none">
<path d="M4191 6625 l-285 -495 -728 0 -728 0 0 -1261 0 -1261 -716 -1241
c-395 -683 -719 -1248 -721 -1257 -3 -11 228 -149 853 -509 714 -412 858 -491
868 -480 7 8 138 231 290 497 l278 482 724 0 724 0 0 1254 0 1254 725 1256
c399 691 725 1259 725 1263 0 9 -1703 993 -1716 993 -5 -1 -137 -223 -293
-495z"/>
</g>
</svg>
